<svg xmlns="http://www.w3.org/2000/svg" data-name="Layer 1" viewBox="0 0 64 64"><path fill="#ffeb8c" d="M41 31a9 9 0 0 0-9.278-9A9.1 9.1 0 0 0 23 31.033a8.992 8.992 0 0 0 5 8.02v5a4 4 0 0 0 4 4 4 4 0 0 0 4-4v-5A8.989 8.989 0 0 0 41 31Z"/><path fill="#748ca6" d="M36 41.053v3a4 4 0 0 1-8 0v-3Z"/><circle cx="9" cy="9" r="7" fill="#86a1bf"/><circle cx="9" cy="7.25" r="1.75" fill="#ffdbac"/><path fill="#d9d9d9" d="M12 11.65v3.67a6.958 6.958 0 0 1-6 0v-3.67a1.694 1.694 0 0 1 1.69-1.69h2.62A1.694 1.694 0 0 1 12 11.65Z"/><circle cx="55" cy="9" r="7" fill="#86a1bf"/><circle cx="55" cy="7.25" r="1.75" fill="#ffdbac"/><path fill="#d9d9d9" d="M58 11.65v3.67a6.958 6.958 0 0 1-6 0v-3.67a1.694 1.694 0 0 1 1.69-1.69h2.62A1.694 1.694 0 0 1 58 11.65Z"/><circle cx="55" cy="55" r="7" fill="#86a1bf"/><circle cx="55" cy="53.25" r="1.75" fill="#ffdbac"/><path fill="#d9d9d9" d="M58 57.65v3.67a6.958 6.958 0 0 1-6 0v-3.67a1.694 1.694 0 0 1 1.69-1.69h2.62A1.694 1.694 0 0 1 58 57.65Z"/><circle cx="9" cy="55" r="7" fill="#86a1bf"/><circle cx="9" cy="53.25" r="1.75" fill="#ffdbac"/><path fill="#d9d9d9" d="M12 57.65v3.67a6.958 6.958 0 0 1-6 0v-3.67a1.694 1.694 0 0 1 1.69-1.69h2.62A1.694 1.694 0 0 1 12 57.65Z"/><path d="M22 30.982a9.944 9.944 0 0 0 5 8.618V44a5 5 0 0 0 10 0v-4.4a10 10 0 0 0-5.308-18.647A10.064 10.064 0 0 0 22 30.982ZM32 47a2.993 2.993 0 0 1-2.583-1.5h5.166A2.993 2.993 0 0 1 32 47Zm3-3.5h-6V42h6Zm-3.247-20.55h.249a8 8 0 0 1 3.553 15.15A1 1 0 0 0 35 39v1h-6v-1a1 1 0 0 0-.555-.9A7.964 7.964 0 0 1 24 30.976a8.052 8.052 0 0 1 7.753-8.026ZM31 16h2v3h-2zM17 30h3v2h-3zM44 30h3v2h-3zM20.686 21.1l1.414-1.414 2.122 2.122-1.414 1.414zM39.778 40.192l1.414-1.414 2.122 2.122-1.414 1.414zM20.686 40.9l2.122-2.122 1.414 1.414-2.122 2.122zM39.778 21.808l2.122-2.122 1.414 1.414-2.122 2.122z"/><path d="M32.5 33h-1a.5.5 0 0 1-.5-.5h-2a2.5 2.5 0 0 0 2 2.449V36h2v-1.051A2.5 2.5 0 0 0 32.5 30h-1a.5.5 0 0 1 0-1h1a.5.5 0 0 1 .5.5h2a2.5 2.5 0 0 0-2-2.449V26h-2v1.051A2.5 2.5 0 0 0 31.5 32h1a.5.5 0 0 1 0 1zM55 1a8 8 0 1 0 8 8 8.009 8.009 0 0 0-8-8zm2 13.65a5.889 5.889 0 0 1-4 0v-3a.691.691 0 0 1 .69-.69h2.62a.691.691 0 0 1 .69.69zm-2.75-7.4A.75.75 0 1 1 55 8a.751.751 0 0 1-.75-.75zM59 13.46v-1.81a2.686 2.686 0 0 0-1.958-2.576 2.75 2.75 0 1 0-4.084 0A2.686 2.686 0 0 0 51 11.65v1.81a6 6 0 1 1 8 0zM9 17a8 8 0 1 0-8-8 8.009 8.009 0 0 0 8 8zm2-2.35a5.889 5.889 0 0 1-4 0v-3a.691.691 0 0 1 .69-.69h2.62a.691.691 0 0 1 .69.69zm-2.75-7.4A.75.75 0 1 1 9 8a.751.751 0 0 1-.75-.75zM9 3a5.992 5.992 0 0 1 4 10.46v-1.81a2.686 2.686 0 0 0-1.958-2.576 2.75 2.75 0 1 0-4.084 0A2.686 2.686 0 0 0 5 11.65v1.81A5.992 5.992 0 0 1 9 3zm46 44a8 8 0 1 0 8 8 8.009 8.009 0 0 0-8-8zm2 13.65a5.889 5.889 0 0 1-4 0v-3a.691.691 0 0 1 .69-.69h2.62a.691.691 0 0 1 .69.69zm-2.75-7.4A.75.75 0 1 1 55 54a.751.751 0 0 1-.75-.75zM59 59.46v-1.81a2.686 2.686 0 0 0-1.958-2.576 2.75 2.75 0 1 0-4.084 0A2.686 2.686 0 0 0 51 57.65v1.81a6 6 0 1 1 8 0zM9 63a8 8 0 1 0-8-8 8.009 8.009 0 0 0 8 8zm2-2.35a5.889 5.889 0 0 1-4 0v-3a.691.691 0 0 1 .69-.69h2.62a.691.691 0 0 1 .69.69zm-2.75-7.4A.75.75 0 1 1 9 54a.751.751 0 0 1-.75-.75zM9 49a5.992 5.992 0 0 1 4 10.46v-1.81a2.686 2.686 0 0 0-1.958-2.576 2.75 2.75 0 1 0-4.084 0A2.686 2.686 0 0 0 5 57.65v1.81A5.992 5.992 0 0 1 9 49zM20 8h24v2H20zM8 20h2v24H8zM20 54h24v2H20zM54 20h2v24h-2z"/></svg>