<svg xmlns="http://www.w3.org/2000/svg" fill-rule="evenodd" stroke-linejoin="round" stroke-miterlimit="2" clip-rule="evenodd" viewBox="0 0 32 32"><g transform="translate(-336 -288)"><path fill="#007ea7" d="M101.802,175C103.459,175 104.802,173.657 104.802,172C104.802,169.638 104.802,166.362 104.802,164C104.802,162.343 103.459,161 101.802,161C101.802,161 101.802,161 101.802,161C100.146,161 98.802,162.343 98.802,164L98.802,172C98.802,173.657 100.146,175 101.802,175L101.802,175Z" transform="translate(239.132 144.102)"/><path fill="#70dcf0" d="M108.802,162C107.698,162 106.802,162.895 106.802,164C106.802,166.184 106.802,169.816 106.802,172C106.802,172.53 107.013,173.039 107.388,173.414C107.763,173.79 108.272,174 108.802,174C108.802,174 108.802,174 108.802,174C111.676,174 115.855,174 117.919,174C118.763,174 119.568,173.644 120.137,173.02C120.137,173.02 124.77,167.932 124.77,167.932C126.737,165.956 126.996,164.182 126.6,163.027C125.917,161.029 123.14,160.248 121.095,162.293C121.095,162.293 117.778,165.87 116.396,167.36C116.018,167.768 115.486,168 114.93,168C113.753,168 111.802,168 111.802,168C111.25,168 110.802,167.552 110.802,167C110.802,166.448 111.25,166 111.802,166L113.802,166C117.293,166 117.294,162 113.803,162L108.802,162Z" transform="translate(239.132 144.102)"/><path fill="#70dcf0" d="M357 306.111L357 302 355 302 355 304.458C355.929 304.818 356.586 305.419 357 306.111zM364 303.282C362.417 302.928 360.589 303.317 359 304.8L359 302 364 302 364 303.282zM353 304.103L353 302 348 302 348 304.102 353 304.103z"/><path fill="#007ea7" d="M348,300L353,300L353,296L355,296L355,300L357,300L357,296L359,296L359,300L364.017,300C364.547,300 365.056,299.789 365.431,299.414C365.806,299.039 366.017,298.53 366.017,298L366.017,296C366.017,295.47 365.806,294.961 365.431,294.586C365.056,294.211 364.547,294 364.017,294L360.922,294C360.952,293.959 360.98,293.919 361.004,293.88C361.744,292.696 361.254,291.002 359.706,290.177C358.23,289.39 356.484,289.809 355.779,290.938C355.756,290.975 355.732,291.014 355.709,291.057C355.686,291.014 355.663,290.975 355.64,290.938C354.934,289.809 353.188,289.39 351.713,290.177C350.165,291.002 349.674,292.696 350.414,293.88C350.439,293.919 350.466,293.959 350.497,294L348.017,294C347.486,294 346.978,294.211 346.602,294.586C346.227,294.961 346.017,295.47 346.017,296L346.017,298C346.017,298.53 346.227,299.039 346.602,299.414C346.974,299.785 347.476,299.996 348,300L348,300ZM357.255,294L357.132,294C357.114,293.927 357.074,293.76 357.071,293.646C357.057,293.047 357.266,292.332 357.475,291.998C357.559,291.862 357.723,291.804 357.895,291.777C358.17,291.734 358.481,291.79 358.765,291.941C359.023,292.079 359.219,292.273 359.308,292.493C359.352,292.603 359.37,292.721 359.308,292.82C359.1,293.153 358.43,293.6 357.791,293.851C357.632,293.913 357.473,293.962 357.322,293.986C357.299,293.99 357.277,293.995 357.255,294ZM354.286,294L354.163,294C354.142,293.995 354.119,293.99 354.096,293.986C353.945,293.962 353.787,293.913 353.628,293.851C352.989,293.6 352.319,293.153 352.11,292.82C352.049,292.721 352.067,292.603 352.111,292.493C352.199,292.273 352.395,292.079 352.654,291.941C352.937,291.79 353.248,291.734 353.523,291.777C353.695,291.804 353.859,291.862 353.944,291.998C354.153,292.332 354.362,293.047 354.347,293.646C354.344,293.76 354.305,293.927 354.286,294Z"/></g></svg>