<svg xmlns="http://www.w3.org/2000/svg" enable-background="new 0 0 32 32" viewBox="0 0 32 32"><line x1="16" x2="16" y1="11" y2="13" fill="none" stroke="#000" stroke-linecap="round" stroke-linejoin="round" stroke-miterlimit="10" stroke-width="2"/><line x1="16" x2="16" y1="19" y2="21" fill="none" stroke="#000" stroke-linecap="round" stroke-linejoin="round" stroke-miterlimit="10" stroke-width="2"/><path fill="none" stroke="#000" stroke-linecap="round" stroke-linejoin="round" stroke-miterlimit="10" stroke-width="2" d="M18,13h-3c-0.6,0-1,0.4-1,1v1c0,0.6,0.4,1,1,1h2c0.6,0,1,0.4,1,1v1c0,0.6-0.4,1-1,1h-3"/><path fill="none" stroke="#000" stroke-linecap="round" stroke-linejoin="round" stroke-miterlimit="10" stroke-width="2" d="M31,20v3c0,0.5-0.5,1-1,1h-3H5H2c-0.5,0-1-0.5-1-1v-3v-8V9c0-0.6,0.5-1,1-1h3h22h3c0.5,0,1,0.4,1,1v3V20z"/><path fill="none" stroke="#000" stroke-miterlimit="10" stroke-width="2" d="M5 8v1c0 1.7-1.3 3-3 3H1M1 20h1c1.7 0 3 1.3 3 3v1M27 24v-1c0-1.7 1.3-3 3-3h1M31 12h-1c-1.7 0-3-1.3-3-3V8"/><path fill="none" stroke="#000" stroke-linecap="round" stroke-linejoin="round" stroke-miterlimit="10" stroke-width="2.108" d="M4.9 5C8.3 3.1 12 2 16 2c3.9 0 7.7 1.1 11 3l-2-4M27 27.1c-3.3 1.9-7.1 2.9-11 2.9-3.9 0-7.7-1.1-11-3l2 4"/></svg>