<svg xmlns="http://www.w3.org/2000/svg" width="48" height="48"><g transform="translate(0 -1004.362)"><circle cx="24" cy="1028.362" r="24" fill="#239fdb" fill-rule="evenodd"/><path fill="#0b5ecd" style="line-height:normal;text-indent:0;text-align:start;text-decoration-line:none;text-decoration-style:solid;text-decoration-color:#000;text-transform:none;block-progression:tb;isolation:auto;mix-blend-mode:normal" d="M29.303 47.375a24 24 0 0 0 1.117-.25 24 24 0 0 0 2.277-.756 24 24 0 0 0 2.19-.98 24 24 0 0 0 2.08-1.194 24 24 0 0 0 1.951-1.394 24 24 0 0 0 1.803-1.584 24 24 0 0 0 1.634-1.756 24 24 0 0 0 1.454-1.91 24 24 0 0 0 1.254-2.045 24 24 0 0 0 1.042-2.16 24 24 0 0 0 .823-2.254 24 24 0 0 0 .593-2.324 24 24 0 0 0 .305-2.018L37.537 16.46a1.567 1.567 0 0 0-1.11-.462H19.562l-.082-.082a.5.5 0 0 0-.342-.342l-5.502-1.558a.5.5 0 0 0-.147-.022.5.5 0 0 0-.125.02l-5.502 1.558a.5.5 0 0 0-.363.483v6.502c0 .228.024.446.059.658.007.047.014.094.023.14.02.099.055.19.082.284.05.171.104.34.174.5a4.414 4.414 0 0 0 .38.686c.056.08.11.162.17.24.106.136.218.265.335.39.043.047.08.1.125.145l.062.06L13 29.754v.672c0 .108.01.212.031.314.021.102.054.2.094.293v.002c.04.093.088.183.145.266v.002c.056.083.122.16.193.23v.002l15.84 15.84zM14.705 15.357l.379.108.002.002-.379-.108-.002-.002zm-6.033 1.028.002.002-.176.049v-.002l.174-.05z" color="#000" font-family="sans-serif" font-weight="400" transform="translate(0 1004.362)"/><path fill="#fff" style="line-height:normal;text-indent:0;text-align:start;text-decoration-line:none;text-decoration-style:solid;text-decoration-color:#000;text-transform:none;block-progression:tb;isolation:auto;mix-blend-mode:normal" d="M6.488 6.998V7a.5.5 0 0 0-.125.02L.861 8.578a.5.5 0 0 0-.363.483v6.5c-.008 2.071 1.549 3.448 2.998 4.27 1.14.645 2.072.922 2.504 1.04v2.559c0 .862.71 1.572 1.572 1.572h21.856A1.58 1.58 0 0 0 31 23.43V10.574a1.58 1.58 0 0 0-1.572-1.572H12.496a.5.5 0 0 0-.36-.424L6.636 7.02a.5.5 0 0 0-.147-.022ZM6.5 8.02l5 1.417V15.56c0 .562-.158 1.06-.414 1.504l-.107.163c-.35.532-.857.98-1.41 1.359-.091.062-.181.124-.274.182l-.012.007c-.16.1-.323.198-.486.286v.002c-.249.132-.5.26-.735.363-.269.117-.522.217-.74.293-.003 0-.007 0-.01.002a9.236 9.236 0 0 1-.814.246c-.109-.027-1.26-.3-2.508-1.006-1.304-.739-2.499-1.831-2.492-3.398V9.439L6.5 8.02Zm6 1.982h16.928c.324 0 .572.247.572.572V11H12.5v-.998zm0 1.998H30v2H12.5v-2zm-4.586.408-1.77 1.768-1.06-1.06-.707.706 1.768 1.768 2.476-2.475-.707-.707ZM12.5 15H30v8.43a.561.561 0 0 1-.572.572H7.572A.562.562 0 0 1 7 23.43v-2.56a10.873 10.873 0 0 0 2.158-.867L19 20.001v-3h-6.773c.172-.438.273-.917.273-1.441V15Zm11 1a2.508 2.508 0 0 0-2.5 2.5c0 1.375 1.125 2.5 2.5 2.5.548 0 1.074-.184 1.504-.51.419.317.934.512 1.496.512 1.375 0 2.5-1.125 2.5-2.5s-1.125-2.5-2.5-2.5c-.562 0-1.076.194-1.494.51a2.496 2.496 0 0 0-1.504-.51H23.5V16zm-.002.998V17h.002c.304 0 .563.157.8.34a2.463 2.463 0 0 0-.298 1.146l-.002.012v.004c0 .42.115.811.3 1.16-.238.182-.497.336-.8.336-.834 0-1.5-.666-1.5-1.5s.665-1.499 1.498-1.5zm3.002.004c.834 0 1.5.666 1.5 1.5s-.666 1.5-1.5 1.5c-.412 0-.783-.163-1.053-.428l-.052-.06-.02-.024-.004-.006a1.503 1.503 0 0 1-.271-.45l-.004-.016a1.493 1.493 0 0 1-.096-.516c0-.18.034-.356.096-.522l.004-.007c.063-.167.155-.324.275-.46l.082-.091c.27-.26.635-.42 1.043-.42Zm-14.846 1H18v1h-7.303a5.83 5.83 0 0 0 .957-1zM8 22v1h3v-1H8zm4 0v1h3v-1h-3zm4 0v1h3v-1h-3zm4 0v1h3v-1h-3z" color="#000" font-family="sans-serif" font-weight="400" overflow="visible" transform="translate(7 1011.36)"/></g></svg>